<svg xmlns="http://www.w3.org/2000/svg" version="1.1" xmlns:xlink="http://www.w3.org/1999/xlink" xmlns:svgjs="http://svgjs.dev/svgjs" width="2000" height="803" viewBox="0 0 2000 803"><g transform="matrix(1,0,0,1,-1.2121212121212466,-1.191219922083917)"><svg viewBox="0 0 396 159" data-background-color="#fefbf6" preserveAspectRatio="xMidYMid meet" height="803" width="2000" xmlns="http://www.w3.org/2000/svg" xmlns:xlink="http://www.w3.org/1999/xlink"><g id="tight-bounds" transform="matrix(1,0,0,1,0.2400000000000091,0.23587044534413337)"><svg viewBox="0 0 395.52 158.52825910931173" height="158.52825910931173" width="395.52"><g><svg viewBox="0 0 395.52 158.52825910931173" height="158.52825910931173" width="395.52"><g><svg viewBox="0 0 395.52 158.52825910931173" height="158.52825910931173" width="395.52"><g id="textblocktransform"><svg viewBox="0 0 395.52 158.52825910931173" height="158.52825910931173" width="395.52" id="textblock"><g><svg viewBox="0 0 395.52 158.52825910931173" height="158.52825910931173" width="395.52"><g transform="matrix(1,0,0,1,0,0)"><svg width="395.52" viewBox="1.34 -35.5 90.45 36.26" height="158.52825910931173" data-palette-color="url(#4adfa949-4801-4a87-b050-5f9b886f2f50)"></svg></g></svg></g></svg></g></svg></g></svg></g><defs></defs><mask id="56cf9e78-539c-475a-9ee3-e4edb0a23881"><g id="SvgjsG1591"><svg viewBox="0 0 395.52 158.52825910931173" height="158.52825910931173" width="395.52"><g><svg viewBox="0 0 395.52 158.52825910931173" height="158.52825910931173" width="395.52"><g><svg viewBox="0 0 395.52 158.52825910931173" height="158.52825910931173" width="395.52"><g id="SvgjsG1590"><svg viewBox="0 0 395.52 158.52825910931173" height="158.52825910931173" width="395.52" id="SvgjsSvg1589"><g><svg viewBox="0 0 395.52 158.52825910931173" height="158.52825910931173" width="395.52"><g transform="matrix(1,0,0,1,0,0)"><svg width="395.52" viewBox="1.34 -35.5 90.45 36.26" height="158.52825910931173" data-palette-color="url(#4adfa949-4801-4a87-b050-5f9b886f2f50)"><path d="M27.49-9.69L31.2-3.59Q28.76-1.49 25.73-0.37 22.71 0.76 19.46 0.76L19.46 0.76Q16.97 0.76 14.66 0.11 12.35-0.54 10.34-1.72 8.33-2.91 6.67-4.57 5-6.23 3.82-8.24 2.64-10.25 1.99-12.56 1.34-14.87 1.34-17.36L1.34-17.36Q1.34-19.85 1.99-22.17 2.64-24.49 3.82-26.5 5-28.52 6.67-30.18 8.33-31.84 10.34-33.02 12.35-34.2 14.66-34.85 16.97-35.5 19.46-35.5L19.46-35.5Q22.71-35.5 25.73-34.39 28.76-33.28 31.2-31.15L31.2-31.15 27.49-25.05Q25.95-26.71 23.85-27.6 21.75-28.49 19.46-28.49L19.46-28.49Q17.14-28.49 15.11-27.61 13.09-26.73 11.57-25.23 10.06-23.73 9.18-21.69 8.3-19.65 8.3-17.36L8.3-17.36Q8.3-15.06 9.18-13.05 10.06-11.04 11.57-9.52 13.09-8.01 15.11-7.13 17.14-6.25 19.46-6.25L19.46-6.25Q21.75-6.25 23.85-7.14 25.95-8.03 27.49-9.69L27.49-9.69ZM58.66-24.51L58.66-24.51Q58.66-22.34 57.83-20.42 57-18.51 55.58-17.08 54.15-15.65 52.24-14.82 50.34-13.99 48.17-13.99L48.17-13.99 44.65-13.99Q43.92-13.99 43.28-13.72 42.65-13.45 42.17-12.98 41.7-12.5 41.43-11.87 41.16-11.23 41.16-10.5L41.16-10.5 41.16-7.01 57.71-7.01 57.71 0 34.15 0 34.15-10.5Q34.15-12.67 34.98-14.59 35.81-16.5 37.24-17.93 38.67-19.36 40.57-20.18 42.48-21 44.65-21L44.65-21 48.17-21Q48.9-21 49.53-21.26 50.17-21.53 50.64-22.01 51.12-22.49 51.39-23.13 51.66-23.78 51.66-24.51L51.66-24.51Q51.66-25.24 51.39-25.88 51.12-26.51 50.64-26.99 50.17-27.47 49.53-27.73 48.9-28 48.17-28L48.17-28 35.67-28 35.67-35.01 48.17-35.01Q50.34-35.01 52.24-34.18 54.15-33.35 55.58-31.92 57-30.49 57.83-28.59 58.66-26.68 58.66-24.51ZM91.79-10.5L91.79-10.5Q91.79-8.33 90.96-6.42 90.13-4.52 88.7-3.09 87.28-1.66 85.37-0.83 83.47 0 81.29 0L81.29 0 63.79 0 63.79-35.01 81.29-35.01Q83.47-35.01 85.37-34.18 87.28-33.35 88.7-31.92 90.13-30.49 90.96-28.59 91.79-26.68 91.79-24.51L91.79-24.51Q91.79-23.54 91.52-22.51 91.25-21.48 90.77-20.53 90.28-19.58 89.59-18.8 88.91-18.02 88.08-17.5L88.08-17.5Q88.94-17.04 89.62-16.25 90.3-15.45 90.79-14.5 91.28-13.55 91.54-12.51 91.79-11.47 91.79-10.5ZM70.8-13.99L70.8-7.01 81.29-7.01Q82.03-7.01 82.66-7.28 83.3-7.54 83.77-8.02 84.25-8.5 84.52-9.13 84.79-9.77 84.79-10.5L84.79-10.5Q84.79-11.23 84.52-11.87 84.25-12.5 83.77-12.98 83.3-13.45 82.66-13.72 82.03-13.99 81.29-13.99L81.29-13.99 70.8-13.99ZM70.8-28L70.8-21 81.29-21Q82.03-21 82.66-21.26 83.3-21.53 83.77-22.01 84.25-22.49 84.52-23.13 84.79-23.78 84.79-24.51L84.79-24.51Q84.79-25.24 84.52-25.88 84.25-26.51 83.77-26.99 83.3-27.47 82.66-27.73 82.03-28 81.29-28L81.29-28 70.8-28Z" opacity="1" transform="matrix(1,0,0,1,0,0)" fill="white" class="wordmark-text-0" id="SvgjsPath1588"></path></svg></g></svg></g></svg></g></svg></g></svg></g><defs><mask></mask></defs></svg><rect width="395.52" height="158.52825910931173" fill="black" stroke="none" visibility="hidden"></rect></g></mask><linearGradient x1="0" x2="1" y1="0.5" y2="0.5" id="4adfa949-4801-4a87-b050-5f9b886f2f50"><stop stop-color="#f00b51" offset="0"></stop><stop stop-color="#730062" offset="1"></stop></linearGradient><rect width="395.52" height="158.52825910931173" fill="url(#4adfa949-4801-4a87-b050-5f9b886f2f50)" mask="url(#56cf9e78-539c-475a-9ee3-e4edb0a23881)" data-fill-palette-color="primary"></rect></svg><rect width="395.52" height="158.52825910931173" fill="none" stroke="none" visibility="hidden"></rect></g></svg></g></svg>